# Blender v2.73 (sub 0) OBJ File: 'simpleasteroid.blend'
# www.blender.org
mtllib asteroid.mtl
o SimpleAsteroid_SimpleAsteroidMesh
v -0.396282 -0.404643 0.699499
v 0.239044 -0.638889 0.902929
v 0.327836 0.009241 1.205807
v -0.325394 0.140092 0.959640
v -0.631194 -0.637549 0.026255
v 0.030954 -0.868924 -0.021370
v -0.995733 -0.021186 0.004570
v -0.174506 0.511574 0.892413
v 0.239044 0.638889 0.902929
v 0.630160 0.530540 0.677920
v 0.718746 0.193078 0.815372
v 0.652829 -0.515113 0.642886
v 0.680283 -0.561805 -0.195755
v 0.848296 0.040713 0.704252
v -0.527778 -0.527778 -0.735198
v -0.698214 0.123579 -0.830996
v -0.511574 0.505882 -0.791877
v -0.591460 0.623265 -0.477756
v -0.020864 0.891367 0.014486
v 0.124653 0.672897 -0.758596
v 0.605648 0.598770 -0.812413
v 0.686871 0.708711 -0.293118
v 0.877722 0.018422 -0.495528
v 0.710986 0.016142 -1.026207
v 0.544184 -0.519314 -0.787226
v 0.000000 -0.638889 -0.890298
v -0.529389 0.754054 0.489810
v -0.775595 0.846606 0.058942
v -0.828276 0.230316 0.283507
v -0.373353 0.621796 0.551935
v -0.333268 1.055799 0.022615
v -0.796175 0.662475 -0.319498
v 1.035193 0.010843 -0.176558
v 0.018381 -0.003998 -1.228713
v 0.947424 0.577316 0.058296
v 0.596660 0.679418 0.056505
vt 0.836064 0.298149
vt 0.770000 0.247315
vt 0.853731 0.194589
vt 0.904946 0.236943
vt 0.302950 0.808626
vt 0.358820 0.513505
vt 0.607930 0.516363
vt 0.472133 0.967187
vt 0.254386 0.487889
vt 0.934780 0.166560
vt 0.893411 0.135634
vt 0.863777 0.100576
vt 0.817132 0.125613
vt 0.743500 0.175007
vt 0.607930 0.226982
vt 0.637417 0.114449
vt 0.801605 0.124800
vt 0.352320 0.404313
vt 0.286362 0.375346
vt 0.230410 0.345793
vt 0.191211 0.366659
vt 0.069846 0.322095
vt 0.234454 0.285494
vt 0.254035 0.206923
vt 0.128432 0.121140
vt 0.379088 0.103085
vt 0.337428 0.224948
vt 0.438867 0.257461
vt 0.607930 0.221684
vt 0.390369 0.341323
vt 0.093189 0.787923
vt 0.067897 0.491330
vt 0.148122 0.435408
vt 0.204916 0.508541
vt 0.972717 0.041935
vt 1.000000 0.149344
vt 0.096455 0.364395
vt 0.186149 0.396379
vt 0.704844 0.000000
vt 0.396128 0.000000
vt 0.314712 0.305263
vt 0.832308 0.000000
vt 0.119238 0.035914
vt 0.874885 0.025461
vt 0.075379 0.129447
vt 0.000000 0.485563
vn -0.589100 -0.531600 0.608500
vn 0.102000 -0.750000 0.653500
vn 0.187300 -0.034500 0.981700
vn -0.567300 0.054000 0.821700
vn -0.662500 -0.744400 0.082800
vn -0.003400 -0.999600 0.026600
vn -0.986500 -0.121800 0.108900
vn -0.410300 0.603900 0.683300
vn 0.127000 0.756800 0.641100
vn 0.720400 0.610800 0.328600
vn 0.661500 0.387000 0.642400
vn 0.686200 -0.639600 0.346400
vn 0.678900 -0.728600 -0.090300
vn 0.845800 0.013100 0.533300
vn -0.595800 -0.625800 -0.503200
vn -0.730200 0.050800 -0.681300
vn -0.456200 0.654300 -0.603000
vn -0.279900 0.771600 -0.571200
vn 0.175000 0.984500 -0.009400
vn -0.012900 0.821600 -0.569900
vn 0.512300 0.659600 -0.549900
vn 0.462000 0.871800 -0.163000
vn 0.933700 -0.062600 -0.352600
vn 0.673400 -0.013200 -0.739200
vn 0.549200 -0.674900 -0.492800
vn -0.054400 -0.771500 -0.633800
vn -0.300000 0.642300 0.705300
vn -0.771100 0.627300 0.109200
vn -0.877100 0.106300 0.468300
vn 0.029800 0.784600 0.619300
vn 0.034900 0.998700 -0.037500
vn -0.699600 0.556500 -0.448000
vn 0.976700 -0.117900 -0.179200
vn -0.083100 0.006900 -0.996500
vn 0.805800 0.581600 0.111600
vn 0.353500 0.920400 0.167100
usemtl cube1_auv
s 1
f 1/1/1 2/2/2 3/3/3 4/4/4
f 1/5/1 5/6/5 6/7/6 2/8/2
f 1/5/1 7/9/7 5/6/5
f 8/10/8 4/4/4 3/3/3 9/11/9
f 10/12/10 9/11/9 3/3/3 11/13/11
f 12/14/12 2/2/2 6/15/6 13/16/13
f 12/14/12 14/17/14 3/3/3 2/2/2
f 15/18/15 5/6/5 7/9/7 16/19/16
f 17/20/17 18/21/18 19/22/19 20/23/20
f 21/24/21 22/25/22 23/26/23 24/27/24
f 21/24/21 20/23/20 22/25/22
f 25/28/25 13/29/13 6/7/6 26/30/26
f 4/31/4 27/32/27 28/33/28 29/34/29
f 29/34/29 1/5/1 4/31/4
f 9/11/9 19/35/19 30/36/30 8/10/8
f 28/33/28 31/37/31 32/38/32
f 28/33/28 27/32/27 31/37/31
f 13/16/13 33/39/33 14/17/14 12/14/12
f 13/29/13 23/26/23 33/40/33
f 16/19/16 34/41/34 26/30/26 15/18/15
f 16/19/16 18/21/18 17/20/17
f 16/19/16 32/38/32 18/21/18
f 26/30/26 6/7/6 5/6/5 15/18/15
f 26/30/26 34/41/34 24/27/24 25/28/25
f 24/27/24 34/41/34 20/23/20 21/24/21
f 24/27/24 23/26/23 13/29/13 25/28/25
f 33/39/33 35/42/35 14/17/14
f 33/40/33 23/26/23 22/25/22 35/43/35
f 7/9/7 1/5/1 29/34/29
f 7/9/7 32/38/32 16/19/16
f 14/17/14 11/13/11 3/3/3
f 11/13/11 14/17/14 35/42/35 36/44/36
f 11/13/11 36/44/36 10/12/10
f 22/25/22 36/45/36 35/43/35
f 36/44/36 19/35/19 9/11/9 10/12/10
f 36/45/36 22/25/22 20/23/20
f 36/45/36 20/23/20 19/22/19
f 20/23/20 34/41/34 16/19/16 17/20/17
f 30/36/30 4/4/4 8/10/8
f 30/46/30 19/22/19 31/37/31 27/32/27
f 18/21/18 32/38/32 31/37/31 19/22/19
f 27/32/27 4/31/4 30/46/30
f 32/38/32 29/34/29 28/33/28
f 29/34/29 32/38/32 7/9/7
